<?xml version="1.0" encoding="UTF-8" standalone="no"?>
<svg
   width="256"
   height="256"
   viewBox="0 0 256 256"
   version="1.1"
   id="svg153"
   sodipodi:docname="C.svg"
   xml:space="preserve"
   inkscape:export-filename="C.svg"
   inkscape:export-xdpi="96"
   inkscape:export-ydpi="96"
   xmlns:inkscape="http://www.inkscape.org/namespaces/inkscape"
   xmlns:sodipodi="http://sodipodi.sourceforge.net/DTD/sodipodi-0.dtd"
   xmlns="http://www.w3.org/2000/svg"
   xmlns:svg="http://www.w3.org/2000/svg"><defs
     id="defs157" /><sodipodi:namedview
     id="namedview155"
     pagecolor="#505050"
     bordercolor="#eeeeee"
     borderopacity="1"
     inkscape:showpageshadow="0"
     inkscape:pageopacity="0"
     inkscape:pagecheckerboard="0"
     inkscape:deskcolor="#505050"
     showgrid="false" /><g
     id="C"
     transform="translate(-512,-952)"
     inkscape:highlight-color="#ea2845"><path
       id="Path_2591"
       data-name="Path 2591"
       d="M 51.2,0 H 204.8 A 51.2,51.2 0 0 1 256,51.2 V 204.8 A 51.2,51.2 0 0 1 204.8,256 H 51.2 A 51.2,51.2 0 0 1 0,204.8 V 51.2 A 51.2,51.2 0 0 1 51.2,0 Z"
       fill="rgba(57,73,171,0.2)"
       inkscape:label="Path_2591"
       inkscape:highlight-color="#ea2845"
       transform="translate(512,952)"
       style="opacity:0.15;fill:#e23237;fill-opacity:1" /></g><g
     id="g2204"
     transform="matrix(4.2417815,0,0,4.2417815,59.758219,60.131496)"><path
       d="M 1,5.3 15.892,0 31.176,5.218 28.706,24.912 15.892,32 3.286,25.004 Z"
       fill="#e23237"
       id="path2189" /><path
       d="M 31.176,5.218 15.892,0 v 32 l 12.814,-7.088 z"
       fill="#b52e31"
       id="path2191" /><path
       d="m 15.915,3.74 -9.28,20.64 3.463,-0.07 1.87,-4.664 h 8.3 l 2.032,4.7 3.302,0.07 z m 0.023,6.626 3.14,6.557 H 13.2 l 2.747,-6.557 z"
       fill="#ffffff"
       id="path2193" /></g></svg>
