<?xml version="1.0" encoding="UTF-8" standalone="no"?>
<svg
   width="256"
   height="256"
   viewBox="0 0 256 256"
   version="1.1"
   id="svg153"
   xml:space="preserve"
   xmlns="http://www.w3.org/2000/svg"
   xmlns:svg="http://www.w3.org/2000/svg"><defs
     id="defs157" /><g
     id="C"
     transform="translate(-512,-952)"><path
       id="Path_2591"
       data-name="Path 2591"
       d="M 51.2,0 H 204.8 A 51.2,51.2 0 0 1 256,51.2 V 204.8 A 51.2,51.2 0 0 1 204.8,256 H 51.2 A 51.2,51.2 0 0 1 0,204.8 V 51.2 A 51.2,51.2 0 0 1 51.2,0 Z"
       fill="rgba(57,73,171,0.2)"
       transform="translate(512,952)"
       style="opacity:0.2;fill:#ea2845;fill-opacity:1" /></g><path
     d="m 139.35044,64.318341 c -0.92193,0 -1.78342,0.196539 -2.56932,0.453399 1.68517,1.133526 2.6071,2.607126 3.07562,4.2923 0.0302,0.226709 0.0982,0.392958 0.12835,0.627224 0.0302,0.234247 0.0756,0.392938 0.0756,0.604531 0.13596,2.909388 -0.75568,3.272115 -1.39045,4.98754 -0.95971,2.214149 -0.69524,4.594567 0.4534,6.498892 a 3.9295596,3.9295596 0 0 0 0.39296,0.725453 c -1.25443,-8.357891 5.72054,-9.619877 7.0052,-12.227 0.0982,-2.282167 -1.7834,-3.801093 -3.2721,-4.859043 -1.4207,-0.861471 -2.72048,-1.133527 -3.89934,-1.133527 z m 10.50401,1.889211 c -0.13594,0.755684 -0.0302,0.559205 -0.0756,0.95972 l -0.0756,0.861471 -0.22671,0.793472 c -0.0756,0.264498 -0.16615,0.528975 -0.2645,0.793473 l -0.36271,0.755684 c -0.0982,0.135958 -0.16634,0.264497 -0.2645,0.392958 l -0.19653,0.302265 -0.49874,0.657455 c -0.19655,0.196538 -0.36273,0.430741 -0.60455,0.604548 -0.24181,0.173745 -0.39296,0.392956 -0.62721,0.559205 -0.69524,0.528975 -1.48871,0.921932 -2.21417,1.420677 -0.2267,0.166147 -0.4534,0.302285 -0.65743,0.498784 a 4.8363812,4.8363812 0 0 0 -0.62722,0.528975 c -0.22672,0.196538 -0.39296,0.392957 -0.60457,0.627204 -0.21159,0.234266 -0.36272,0.430746 -0.49873,0.657454 l -0.45342,0.695224 -0.36273,0.755683 -0.26447,0.755685 -0.22672,0.831261 c -0.0302,0.135957 -0.0302,0.302265 -0.0756,0.430745 -0.0454,0.12856 -0.0302,0.264477 -0.0756,0.392957 l -0.0302,0.831241 c 0,0.196539 0,0.392957 0.0302,0.604551 0,0.264498 0.0302,0.528975 0.0982,0.831261 0.068,0.302265 0.0982,0.528975 0.16636,0.793472 l 0.26447,0.793453 c 0.0756,0.166348 0.16635,0.332516 0.22671,0.453418 l -7.60214,-2.94716 -3.83133,-0.982393 -2.08569,-0.498765 a 61.361586,61.361586 0 0 0 -6.01527,-0.891701 c -0.0756,0 -0.0982,-0.03019 -0.16614,-0.03019 l -5.91701,-0.302266 -4.33007,0.166348 c -2.01768,0.135958 -4.03535,0.392958 -6.04548,0.725454 l -1.4887,0.264497 -2.97739,0.657435 -1.488692,0.392957 -1.420697,0.627225 -1.08818,0.498744 c -0.07558,0.03019 -0.135958,0.03019 -0.166348,0.07558 l -0.921932,0.453399 c -0.09817,0.03019 -0.166148,0.07558 -0.22671,0.09817 l -1.027739,0.528975 c -0.226709,0.09817 -0.453398,0.226709 -0.657435,0.332496 -0.09817,0.07558 -0.226709,0.12856 -0.302286,0.166348 l -0.86147,0.498745 a 8.3125301,8.3125301 0 0 0 -0.793473,0.498744 l -0.657455,0.453419 -0.725453,0.528974 -0.559206,0.453419 c -0.07558,0.03019 -0.135958,0.09817 -0.196538,0.135957 l -0.498745,0.430726 c -0.03019,0.07558 -0.09817,0.09817 -0.135957,0.135958 l -0.604551,0.559225 -0.657435,0.627204 -0.559206,0.604552 c -0.07558,0.07558 -0.166348,0.135957 -0.226709,0.196538 a 9.2949199,9.2949199 0 0 1 -0.559205,0.596994 c -0.03019,0.07558 -0.09817,0.09817 -0.135959,0.166347 l -0.755683,0.793473 -1.783423,1.715405 c -0.604572,0.528995 -1.224218,1.02774 -1.851443,1.450927 l -1.979901,1.254425 c -0.657436,0.362733 -1.360217,0.695228 -2.08569,0.982396 a 23.804063,23.804063 0 0 1 -2.14613,0.793474 c -1.390466,0.30227 -2.811143,0.861471 -4.035358,0.959716 -0.264498,0 -0.559207,0.07556 -0.831262,0.09819 l -0.83124,0.196547 -0.793473,0.302258 a 8.4636669,8.4636669 0 0 0 -0.793472,0.362744 c -0.226709,0.166152 -0.498743,0.30227 -0.725453,0.453399 -0.22671,0.151152 -0.453418,0.362735 -0.657455,0.559215 -0.204036,0.196528 -0.453398,0.392958 -0.657435,0.604548 l -0.559205,0.65746 c -0.166148,0.26447 -0.362727,0.49873 -0.498765,0.75568 a 5.818771,5.818771 0 0 0 -0.460956,0.76323 l -0.362727,0.86147 -0.302285,0.8615 -0.166349,0.79345 c -0.09817,0.39296 -0.09817,0.79347 -0.135957,0.98239 -0.03779,0.18895 0,0.43831 0,0.67257 a 1.8892114,1.8892114 0 0 0 0.03019,0.43073 c 0.03019,0.22671 0.07558,0.43074 0.135957,0.62722 l 0.22671,0.60455 c 0.09817,0.22672 0.226708,0.43076 0.362727,0.62723 l 0.430745,0.60453 0.559206,0.529 a 4.8363812,4.8363812 0 0 0 0.627204,0.52898 c 0.793473,0.69521 0.982393,0.92192 2.017691,1.45089 0.166147,0.0982 0.332495,0.16636 0.528974,0.2645 0.09817,0.0982 0.09817,0.12837 0.135958,0.19655 0.03019,0.26447 0.09817,0.52897 0.166347,0.79346 a 4.4585389,4.4585389 0 0 0 0.264498,0.79346 l 0.264497,0.60455 c 0.03019,0.0756 0.07558,0.13595 0.09817,0.16635 l 0.392957,0.72545 0.498745,0.69524 0.559205,0.62721 c 0.196538,0.19654 0.392957,0.36272 0.627223,0.5592 l 0.657453,0.49877 c 0.22671,0.16635 0.453399,0.30226 0.725454,0.43072 a 5.3653603,5.3653603 0 0 0 0.763242,0.36276 c 0.196539,0.0982 0.430746,0.16634 0.657435,0.22668 0.226709,0.0604 0.430746,0.13596 0.559206,0.16615 -0.09817,1.78343 -0.135958,3.47615 0.135957,4.06559 0.302265,0.65743 1.753193,-1.36024 3.2041,-3.66507 -0.196539,2.28216 -0.332497,4.95728 0,5.7432 0.332496,0.78591 2.342629,-1.75319 4.065571,-4.59457 23.426221,-5.41825 44.812101,10.77606 47.056501,33.64308 -0.43075,-3.56683 -4.82128,-5.55428 -6.83895,-5.06308 -0.98239,2.44842 -2.67513,5.59205 -5.38804,7.53416 0.22671,-2.19149 0.12836,-4.42831 -0.33249,-6.61223 a 21.385874,21.385874 0 0 1 -4.09583,8.32764 c -3.13608,0.22671 -6.27218,-1.28465 -7.93468,-3.56683 -0.13596,-0.0982 -0.16615,-0.30228 -0.26448,-0.43074 l -0.2645,-0.69523 c -0.0982,-0.2267 -0.16634,-0.45341 -0.19653,-0.69522 -0.0302,-0.24182 -0.0302,-0.45342 -0.0302,-0.72547 v -0.49874 c 0.0302,-0.22672 0.0982,-0.4534 0.16634,-0.69523 l 0.22671,-0.69524 c 0.13596,-0.22669 0.22671,-0.4534 0.39296,-0.69523 0.55921,-1.51136 0.55921,-2.8716 -0.45342,-3.62728 -0.19654,-0.13596 -0.39295,-0.22672 -0.62723,-0.33249 -0.13596,-0.0302 -0.30226,-0.0982 -0.43071,-0.13596 l -0.2645,-0.0982 -0.69523,-0.16615 a 2.4937589,2.4937589 0 0 0 -0.69524,-0.0982 5.3653603,5.3653603 0 0 0 -0.72545,-0.068 c -0.16635,0 -0.3325,0.0302 -0.49875,0.0302 a 2.5693275,2.5693275 0 0 0 -0.72546,0.0982 l -0.695238,0.12837 -0.695223,0.22671 -0.657455,0.30227 -0.627204,0.33249 c -7.707994,5.02531 -3.098313,16.77621 2.146131,20.1919 -1.979882,0.36273 -4.005111,0.79347 -4.556778,1.22421 1.360235,0.92193 2.841373,1.6625 4.398086,2.28218 l 5.350251,1.51136 c 2.74315,0.60454 5.51649,0.79346 8.32764,0.62721 a 31.436476,31.436476 0 0 0 28.81427,-26.83437 l 0.19654,0.8615 0.30227,1.85141 0.13596,0.89171 0.0756,0.98239 0.0756,1.08818 v 0.529 c 0,0.16615 0.0302,0.36272 0.0302,0.52897 0,0.16635 -0.0302,0.39296 -0.0302,0.60455 v 0.4534 c 0,0.22671 -0.0302,0.43074 -0.0302,0.65746 0,0.12855 0,0.26447 -0.0302,0.43074 l -0.0302,0.72545 c -0.0302,0.0982 -0.0302,0.19654 -0.0302,0.30227 l -0.0982,0.75568 c 0,0.0982 0,0.19654 -0.0302,0.30228 l -0.12836,0.95971 v 0.0756 l -0.19653,0.92196 -0.19655,0.98237 -0.26448,1.02774 -0.2645,1.02773 -0.33249,1.05795 -0.72546,1.91945 -0.39294,0.95972 -0.45342,0.92194 c -0.0302,0.0982 -0.0756,0.16614 -0.0982,0.2267 -2.21416,4.42831 -5.38804,8.23695 -9.35539,11.19924 -0.26447,0.16636 -0.52897,0.36274 -0.79345,0.55922 -0.0756,0.0756 -0.16634,0.0982 -0.2267,0.16614 l -0.72546,0.49874 0.0982,0.19654 h 0.0302 l 1.39045,-0.19654 h 0.0302 l 2.56933,-0.45339 c 0.22672,-0.0302 0.49875,-0.0982 0.72546,-0.16635 l 0.45342,-0.0982 0.69522,-0.12836 0.60455,-0.16634 c 3.30233,-0.79347 6.49887,-1.88922 9.58208,-3.17389 -5.252,7.17902 -12.29499,12.95244 -20.5244,16.75353 3.80109,-0.26448 7.60218,-0.8917 11.2597,-1.94967 13.31516,-3.92955 24.52197,-12.88442 31.23246,-24.95269 a 52.746782,52.746782 0 0 1 -8.88687,21.24984 c 3.2041,-2.11592 6.14373,-4.55678 8.82641,-7.33012 a 52.36894,52.36894 0 0 0 13.91216,-28.08884 c 1.13352,5.21423 1.4509,10.6098 0.95971,15.92982 23.85696,-33.28033 1.97988,-67.78489 -7.17901,-76.868215 -0.0302,-0.07558 -0.0756,-0.09817 -0.0756,-0.166347 -0.0756,0.392958 -0.0982,0.793473 -0.12857,1.186429 -0.0982,0.755685 -0.19654,1.488696 -0.33249,2.214149 -0.13596,0.725453 -0.36273,1.450928 -0.55921,2.191495 -0.19654,0.740567 -0.49874,1.420683 -0.79348,2.115922 -0.2947,0.695217 -0.6272,1.360209 -0.98238,2.017666 a 22.5194,22.5194 0 0 1 -1.18641,1.881661 c -0.43075,0.62722 -0.89173,1.22421 -1.36024,1.78341 a 24.710884,24.710884 0 0 1 -1.55672,1.65495 c -0.33249,0.30227 -0.62723,0.55921 -0.95972,0.83124 l -0.75568,0.65746 a 18.438703,18.438703 0 0 1 -1.85143,1.29221 22.897242,22.897242 0 0 1 -1.94966,1.12597 c -0.69523,0.33252 -1.39047,0.62722 -2.08569,0.92193 a 23.275084,23.275084 0 0 1 -2.14616,0.69524 c -0.72545,0.19654 -1.48869,0.36274 -2.21414,0.49875 -0.72546,0.13596 -1.51138,0.19654 -2.24439,0.2645 -0.52897,0.0302 -1.05797,0.0756 -1.51137,0.0756 -0.75568,0 -1.51136,-0.0756 -2.24437,-0.13596 -0.73301,-0.0604 -1.51137,-0.16636 -2.25194,-0.3325 a 16.700628,16.700628 0 0 1 -2.21416,-0.55922 h -0.0302 c 0.72546,-0.0756 1.45092,-0.13596 2.1915,-0.26449 0.74057,-0.12855 1.48869,-0.30228 2.21415,-0.49876 0.72545,-0.19654 1.4509,-0.43073 2.14614,-0.69522 0.69523,-0.26449 1.42069,-0.60455 2.0857,-0.92193 a 23.123947,23.123947 0 0 0 1.97987,-1.08819 c 0.62723,-0.43074 1.25445,-0.86149 1.85145,-1.32245 a 18.06086,18.06086 0 0 0 1.68517,-1.48869 c 0.55921,-0.49876 1.05795,-1.05797 1.55672,-1.61717 0.49874,-0.55921 0.95969,-1.18643 1.39045,-1.78343 0.0756,-0.0982 0.13595,-0.22669 0.19653,-0.332489 l 0.95973,-1.511374 c 0.36272,-0.657435 0.69522,-1.322448 0.98238,-2.017665 0.28716,-0.69524 0.55922,-1.390468 0.79348,-2.11592 0.23427,-0.725454 0.39296,-1.420698 0.55921,-2.146151 0.16614,-0.725454 0.26448,-1.488695 0.33249,-2.214149 0.068,-0.725453 0.12836,-1.511368 0.12836,-2.24438 0,-0.528975 -0.0302,-1.057969 -0.0756,-1.511368 -0.0756,-0.755684 -0.16615,-1.488695 -0.2645,-2.214168 a 24.181905,24.181905 0 0 0 -0.49873,-2.21417 c -0.2267,-0.695223 -0.45342,-1.420676 -0.72545,-2.115919 -0.27206,-0.695224 -0.60455,-1.390447 -0.92193,-2.040344 -0.3174,-0.649896 -0.72548,-1.322446 -1.13353,-1.949671 -0.40807,-0.627204 -0.86149,-1.224218 -1.32246,-1.813654 l -1.51137,-1.685174 a 20.630187,20.630187 0 0 0 -0.86147,-0.823701 60.832606,60.832606 0 0 0 -4.59457,-3.241888 c -0.22671,-0.12856 -0.43075,-0.22671 -0.65743,-0.332497 -1.0882,-0.695222 -2.11593,-1.057949 -3.1361,-1.390465 z"
     fill="#ea2845"
     fill-rule="evenodd"
     id="path272"
     style="stroke-width:7.55685" /></svg>
