<?xml version="1.0" encoding="UTF-8" standalone="no"?>
<svg
   width="256"
   height="256"
   viewBox="0 0 256 256"
   version="1.1"
   id="svg153"
   sodipodi:docname="C.svg"
   xml:space="preserve"
   inkscape:export-filename="unity3d.svg"
   inkscape:export-xdpi="96"
   inkscape:export-ydpi="96"
   xmlns:inkscape="http://www.inkscape.org/namespaces/inkscape"
   xmlns:sodipodi="http://sodipodi.sourceforge.net/DTD/sodipodi-0.dtd"
   xmlns="http://www.w3.org/2000/svg"
   xmlns:svg="http://www.w3.org/2000/svg"><defs
     id="defs157" /><sodipodi:namedview
     id="namedview155"
     pagecolor="#505050"
     bordercolor="#eeeeee"
     borderopacity="1"
     inkscape:showpageshadow="0"
     inkscape:pageopacity="0"
     inkscape:pagecheckerboard="0"
     inkscape:deskcolor="#505050"
     showgrid="false" /><g
     id="C"
     transform="translate(-512,-952)"
     inkscape:highlight-color="#ea2845"><path
       id="Path_2591"
       data-name="Path 2591"
       d="M 51.2,0 H 204.8 A 51.2,51.2 0 0 1 256,51.2 V 204.8 A 51.2,51.2 0 0 1 204.8,256 H 51.2 A 51.2,51.2 0 0 1 0,204.8 V 51.2 A 51.2,51.2 0 0 1 51.2,0 Z"
       fill="rgba(57,73,171,0.2)"
       inkscape:label="Path_2591"
       inkscape:highlight-color="#ea2845"
       transform="translate(512,952)"
       style="opacity:0.15;fill:#000000;fill-opacity:1" /></g><path
     d="m 192,114.51223 -14.00743,-52.110188 -52.30903,13.968483 -7.73863,13.605638 -15.6761,-0.112747 -38.268808,38.147854 38.272908,38.13762 15.69865,-0.11685 7.74888,13.60564 52.27418,13.96028 L 192,141.49187 184.04613,128.00102 Z M 159.20051,81.917738 136.27367,121.56412 H 90.370792 L 119.26304,92.16758 Z m -22.92684,52.530442 22.95144,39.64229 -39.98872,-10.27444 -28.894298,-29.3576 h 45.902878 z m 11.20923,-6.43691 22.95144,-39.646382 11.09648,39.646382 -11.09648,39.63615 z"
     fill="#222c37"
     id="path3728"
     style="fill:#ffffff;fill-opacity:1;stroke-width:2.04997" /></svg>
